<mxfile host="65bd71144e">
    <diagram id="eR-Qtvk94U0Yo9fx3vLx" name="Page-1">
        <mxGraphModel dx="1074" dy="812" grid="1" gridSize="10" guides="1" tooltips="1" connect="1" arrows="0" fold="1" page="1" pageScale="1" pageWidth="850" pageHeight="1100" math="0" shadow="0">
            <root>
                <mxCell id="0"/>
                <mxCell id="1" parent="0"/>
                <mxCell id="cxmRrtGTWL4b0-NTS0eR-15" value="Control system" style="swimlane;fontStyle=0;align=center;verticalAlign=top;childLayout=stackLayout;horizontal=1;startSize=25;horizontalStack=0;resizeParent=1;resizeParentMax=0;resizeLast=0;collapsible=0;marginBottom=0;html=1;" vertex="1" parent="1">
                    <mxGeometry x="285" y="60" width="140" height="73" as="geometry"/>
                </mxCell>
                <mxCell id="cxmRrtGTWL4b0-NTS0eR-16" value="Config: Configuration" style="text;html=1;strokeColor=none;fillColor=none;align=center;verticalAlign=middle;spacingLeft=4;spacingRight=4;overflow=hidden;rotatable=0;points=[[0,0.5],[1,0.5]];portConstraint=eastwest;" vertex="1" parent="cxmRrtGTWL4b0-NTS0eR-15">
                    <mxGeometry y="25" width="140" height="20" as="geometry"/>
                </mxCell>
                <mxCell id="cxmRrtGTWL4b0-NTS0eR-20" value="" style="line;strokeWidth=1;fillColor=none;align=left;verticalAlign=middle;spacingTop=-1;spacingLeft=3;spacingRight=3;rotatable=0;labelPosition=right;points=[];portConstraint=eastwest;" vertex="1" parent="cxmRrtGTWL4b0-NTS0eR-15">
                    <mxGeometry y="45" width="140" height="8" as="geometry"/>
                </mxCell>
                <mxCell id="cxmRrtGTWL4b0-NTS0eR-21" value="main()" style="text;html=1;strokeColor=none;fillColor=none;align=center;verticalAlign=middle;spacingLeft=4;spacingRight=4;overflow=hidden;rotatable=0;points=[[0,0.5],[1,0.5]];portConstraint=eastwest;" vertex="1" parent="cxmRrtGTWL4b0-NTS0eR-15">
                    <mxGeometry y="53" width="140" height="20" as="geometry"/>
                </mxCell>
                <mxCell id="cxmRrtGTWL4b0-NTS0eR-148" style="edgeStyle=none;html=1;exitX=0.5;exitY=0;exitDx=0;exitDy=0;entryX=0.629;entryY=1.2;entryDx=0;entryDy=0;entryPerimeter=0;endArrow=none;endFill=0;" edge="1" parent="1" source="cxmRrtGTWL4b0-NTS0eR-44" target="cxmRrtGTWL4b0-NTS0eR-21">
                    <mxGeometry relative="1" as="geometry"/>
                </mxCell>
                <mxCell id="cxmRrtGTWL4b0-NTS0eR-44" value="Tank" style="swimlane;fontStyle=0;align=center;verticalAlign=top;childLayout=stackLayout;horizontal=1;startSize=25;horizontalStack=0;resizeParent=1;resizeParentMax=0;resizeLast=0;collapsible=0;marginBottom=0;html=1;" vertex="1" parent="1">
                    <mxGeometry x="440" y="210" width="140" height="173" as="geometry"/>
                </mxCell>
                <mxCell id="cxmRrtGTWL4b0-NTS0eR-46" value="Pumps: Pump[]" style="text;html=1;strokeColor=none;fillColor=none;align=left;verticalAlign=middle;spacingLeft=4;spacingRight=4;overflow=hidden;rotatable=0;points=[[0,0.5],[1,0.5]];portConstraint=eastwest;" vertex="1" parent="cxmRrtGTWL4b0-NTS0eR-44">
                    <mxGeometry y="25" width="140" height="20" as="geometry"/>
                </mxCell>
                <mxCell id="cxmRrtGTWL4b0-NTS0eR-95" value="TotalFlow: float" style="text;html=1;strokeColor=none;fillColor=none;align=left;verticalAlign=middle;spacingLeft=4;spacingRight=4;overflow=hidden;rotatable=0;points=[[0,0.5],[1,0.5]];portConstraint=eastwest;" vertex="1" parent="cxmRrtGTWL4b0-NTS0eR-44">
                    <mxGeometry y="45" width="140" height="20" as="geometry"/>
                </mxCell>
                <mxCell id="cxmRrtGTWL4b0-NTS0eR-96" value="Volume: float" style="text;html=1;strokeColor=none;fillColor=none;align=left;verticalAlign=middle;spacingLeft=4;spacingRight=4;overflow=hidden;rotatable=0;points=[[0,0.5],[1,0.5]];portConstraint=eastwest;" vertex="1" parent="cxmRrtGTWL4b0-NTS0eR-44">
                    <mxGeometry y="65" width="140" height="20" as="geometry"/>
                </mxCell>
                <mxCell id="cxmRrtGTWL4b0-NTS0eR-97" value="Time: DateTime" style="text;html=1;strokeColor=none;fillColor=none;align=left;verticalAlign=middle;spacingLeft=4;spacingRight=4;overflow=hidden;rotatable=0;points=[[0,0.5],[1,0.5]];portConstraint=eastwest;" vertex="1" parent="cxmRrtGTWL4b0-NTS0eR-44">
                    <mxGeometry y="85" width="140" height="20" as="geometry"/>
                </mxCell>
                <mxCell id="cxmRrtGTWL4b0-NTS0eR-101" value="Alarm: Alarm" style="text;html=1;strokeColor=none;fillColor=none;align=left;verticalAlign=middle;spacingLeft=4;spacingRight=4;overflow=hidden;rotatable=0;points=[[0,0.5],[1,0.5]];portConstraint=eastwest;" vertex="1" parent="cxmRrtGTWL4b0-NTS0eR-44">
                    <mxGeometry y="105" width="140" height="20" as="geometry"/>
                </mxCell>
                <mxCell id="cxmRrtGTWL4b0-NTS0eR-50" value="" style="line;strokeWidth=1;fillColor=none;align=left;verticalAlign=middle;spacingTop=-1;spacingLeft=3;spacingRight=3;rotatable=0;labelPosition=right;points=[];portConstraint=eastwest;" vertex="1" parent="cxmRrtGTWL4b0-NTS0eR-44">
                    <mxGeometry y="125" width="140" height="8" as="geometry"/>
                </mxCell>
                <mxCell id="cxmRrtGTWL4b0-NTS0eR-52" value="calculateTotalFlow()" style="text;html=1;strokeColor=none;fillColor=none;align=left;verticalAlign=middle;spacingLeft=4;spacingRight=4;overflow=hidden;rotatable=0;points=[[0,0.5],[1,0.5]];portConstraint=eastwest;" vertex="1" parent="cxmRrtGTWL4b0-NTS0eR-44">
                    <mxGeometry y="133" width="140" height="20" as="geometry"/>
                </mxCell>
                <mxCell id="cxmRrtGTWL4b0-NTS0eR-98" value="calculateVolume()" style="text;html=1;strokeColor=none;fillColor=none;align=left;verticalAlign=middle;spacingLeft=4;spacingRight=4;overflow=hidden;rotatable=0;points=[[0,0.5],[1,0.5]];portConstraint=eastwest;" vertex="1" parent="cxmRrtGTWL4b0-NTS0eR-44">
                    <mxGeometry y="153" width="140" height="20" as="geometry"/>
                </mxCell>
                <mxCell id="cxmRrtGTWL4b0-NTS0eR-53" value="Pump" style="swimlane;fontStyle=0;align=center;verticalAlign=top;childLayout=stackLayout;horizontal=1;startSize=25;horizontalStack=0;resizeParent=1;resizeParentMax=0;resizeLast=0;collapsible=0;marginBottom=0;html=1;" vertex="1" parent="1">
                    <mxGeometry x="640" y="210" width="140" height="153" as="geometry"/>
                </mxCell>
                <mxCell id="cxmRrtGTWL4b0-NTS0eR-55" value="Direction: enum" style="text;html=1;strokeColor=none;fillColor=none;align=left;verticalAlign=middle;spacingLeft=4;spacingRight=4;overflow=hidden;rotatable=0;points=[[0,0.5],[1,0.5]];portConstraint=eastwest;" vertex="1" parent="cxmRrtGTWL4b0-NTS0eR-53">
                    <mxGeometry y="25" width="140" height="20" as="geometry"/>
                </mxCell>
                <mxCell id="cxmRrtGTWL4b0-NTS0eR-57" value="MaxCapacity: float" style="text;html=1;strokeColor=none;fillColor=none;align=left;verticalAlign=middle;spacingLeft=4;spacingRight=4;overflow=hidden;rotatable=0;points=[[0,0.5],[1,0.5]];portConstraint=eastwest;" vertex="1" parent="cxmRrtGTWL4b0-NTS0eR-53">
                    <mxGeometry y="45" width="140" height="20" as="geometry"/>
                </mxCell>
                <mxCell id="cxmRrtGTWL4b0-NTS0eR-58" value="CurrentCapacity: float" style="text;html=1;strokeColor=none;fillColor=none;align=left;verticalAlign=middle;spacingLeft=4;spacingRight=4;overflow=hidden;rotatable=0;points=[[0,0.5],[1,0.5]];portConstraint=eastwest;" vertex="1" parent="cxmRrtGTWL4b0-NTS0eR-53">
                    <mxGeometry y="65" width="140" height="20" as="geometry"/>
                </mxCell>
                <mxCell id="cxmRrtGTWL4b0-NTS0eR-135" value="Com: Communicator" style="text;html=1;strokeColor=none;fillColor=none;align=left;verticalAlign=middle;spacingLeft=4;spacingRight=4;overflow=hidden;rotatable=0;points=[[0,0.5],[1,0.5]];portConstraint=eastwest;" vertex="1" parent="cxmRrtGTWL4b0-NTS0eR-53">
                    <mxGeometry y="85" width="140" height="20" as="geometry"/>
                </mxCell>
                <mxCell id="cxmRrtGTWL4b0-NTS0eR-59" value="" style="line;strokeWidth=1;fillColor=none;align=left;verticalAlign=middle;spacingTop=-1;spacingLeft=3;spacingRight=3;rotatable=0;labelPosition=right;points=[];portConstraint=eastwest;" vertex="1" parent="cxmRrtGTWL4b0-NTS0eR-53">
                    <mxGeometry y="105" width="140" height="8" as="geometry"/>
                </mxCell>
                <mxCell id="cxmRrtGTWL4b0-NTS0eR-60" value="operations" style="text;html=1;strokeColor=none;fillColor=none;align=center;verticalAlign=middle;spacingLeft=4;spacingRight=4;overflow=hidden;rotatable=0;points=[[0,0.5],[1,0.5]];portConstraint=eastwest;" vertex="1" parent="cxmRrtGTWL4b0-NTS0eR-53">
                    <mxGeometry y="113" width="140" height="20" as="geometry"/>
                </mxCell>
                <mxCell id="cxmRrtGTWL4b0-NTS0eR-61" value="operation1" style="text;html=1;strokeColor=none;fillColor=none;align=left;verticalAlign=middle;spacingLeft=4;spacingRight=4;overflow=hidden;rotatable=0;points=[[0,0.5],[1,0.5]];portConstraint=eastwest;" vertex="1" parent="cxmRrtGTWL4b0-NTS0eR-53">
                    <mxGeometry y="133" width="140" height="20" as="geometry"/>
                </mxCell>
                <mxCell id="cxmRrtGTWL4b0-NTS0eR-68" value="Configuration" style="swimlane;fontStyle=0;align=center;verticalAlign=top;childLayout=stackLayout;horizontal=1;startSize=25;horizontalStack=0;resizeParent=1;resizeParentMax=0;resizeLast=0;collapsible=0;marginBottom=0;html=1;" vertex="1" parent="1">
                    <mxGeometry x="60" y="60" width="140" height="273" as="geometry"/>
                </mxCell>
                <mxCell id="cxmRrtGTWL4b0-NTS0eR-69" value="InputPumps: int" style="text;html=1;strokeColor=none;fillColor=none;align=center;verticalAlign=middle;spacingLeft=4;spacingRight=4;overflow=hidden;rotatable=0;points=[[0,0.5],[1,0.5]];portConstraint=eastwest;" vertex="1" parent="cxmRrtGTWL4b0-NTS0eR-68">
                    <mxGeometry y="25" width="140" height="20" as="geometry"/>
                </mxCell>
                <mxCell id="cxmRrtGTWL4b0-NTS0eR-103" value="OutputPumps: int" style="text;html=1;strokeColor=none;fillColor=none;align=center;verticalAlign=middle;spacingLeft=4;spacingRight=4;overflow=hidden;rotatable=0;points=[[0,0.5],[1,0.5]];portConstraint=eastwest;" vertex="1" parent="cxmRrtGTWL4b0-NTS0eR-68">
                    <mxGeometry y="45" width="140" height="20" as="geometry"/>
                </mxCell>
                <mxCell id="cxmRrtGTWL4b0-NTS0eR-104" value="InputCapacity: float" style="text;html=1;strokeColor=none;fillColor=none;align=center;verticalAlign=middle;spacingLeft=4;spacingRight=4;overflow=hidden;rotatable=0;points=[[0,0.5],[1,0.5]];portConstraint=eastwest;" vertex="1" parent="cxmRrtGTWL4b0-NTS0eR-68">
                    <mxGeometry y="65" width="140" height="20" as="geometry"/>
                </mxCell>
                <mxCell id="cxmRrtGTWL4b0-NTS0eR-105" value="OutputCapacity: float" style="text;html=1;strokeColor=none;fillColor=none;align=center;verticalAlign=middle;spacingLeft=4;spacingRight=4;overflow=hidden;rotatable=0;points=[[0,0.5],[1,0.5]];portConstraint=eastwest;" vertex="1" parent="cxmRrtGTWL4b0-NTS0eR-68">
                    <mxGeometry y="85" width="140" height="20" as="geometry"/>
                </mxCell>
                <mxCell id="cxmRrtGTWL4b0-NTS0eR-106" value="VesselSize: float" style="text;html=1;strokeColor=none;fillColor=none;align=center;verticalAlign=middle;spacingLeft=4;spacingRight=4;overflow=hidden;rotatable=0;points=[[0,0.5],[1,0.5]];portConstraint=eastwest;" vertex="1" parent="cxmRrtGTWL4b0-NTS0eR-68">
                    <mxGeometry y="105" width="140" height="20" as="geometry"/>
                </mxCell>
                <mxCell id="cxmRrtGTWL4b0-NTS0eR-110" value="VolumeSetpoint: float" style="text;html=1;strokeColor=none;fillColor=none;align=center;verticalAlign=middle;spacingLeft=4;spacingRight=4;overflow=hidden;rotatable=0;points=[[0,0.5],[1,0.5]];portConstraint=eastwest;" vertex="1" parent="cxmRrtGTWL4b0-NTS0eR-68">
                    <mxGeometry y="125" width="140" height="20" as="geometry"/>
                </mxCell>
                <mxCell id="cxmRrtGTWL4b0-NTS0eR-111" value="VolumeUnit: enum" style="text;html=1;strokeColor=none;fillColor=none;align=center;verticalAlign=middle;spacingLeft=4;spacingRight=4;overflow=hidden;rotatable=0;points=[[0,0.5],[1,0.5]];portConstraint=eastwest;" vertex="1" parent="cxmRrtGTWL4b0-NTS0eR-68">
                    <mxGeometry y="145" width="140" height="20" as="geometry"/>
                </mxCell>
                <mxCell id="cxmRrtGTWL4b0-NTS0eR-112" value="LowAlarm: float" style="text;html=1;strokeColor=none;fillColor=none;align=center;verticalAlign=middle;spacingLeft=4;spacingRight=4;overflow=hidden;rotatable=0;points=[[0,0.5],[1,0.5]];portConstraint=eastwest;" vertex="1" parent="cxmRrtGTWL4b0-NTS0eR-68">
                    <mxGeometry y="165" width="140" height="20" as="geometry"/>
                </mxCell>
                <mxCell id="cxmRrtGTWL4b0-NTS0eR-113" value="HighAlarm: float" style="text;html=1;strokeColor=none;fillColor=none;align=center;verticalAlign=middle;spacingLeft=4;spacingRight=4;overflow=hidden;rotatable=0;points=[[0,0.5],[1,0.5]];portConstraint=eastwest;" vertex="1" parent="cxmRrtGTWL4b0-NTS0eR-68">
                    <mxGeometry y="185" width="140" height="20" as="geometry"/>
                </mxCell>
                <mxCell id="cxmRrtGTWL4b0-NTS0eR-109" value="PVValve: bool" style="text;html=1;strokeColor=none;fillColor=none;align=center;verticalAlign=middle;spacingLeft=4;spacingRight=4;overflow=hidden;rotatable=0;points=[[0,0.5],[1,0.5]];portConstraint=eastwest;" vertex="1" parent="cxmRrtGTWL4b0-NTS0eR-68">
                    <mxGeometry y="205" width="140" height="20" as="geometry"/>
                </mxCell>
                <mxCell id="cxmRrtGTWL4b0-NTS0eR-114" value="Protocols: Protocols[]" style="text;html=1;strokeColor=none;fillColor=none;align=center;verticalAlign=middle;spacingLeft=4;spacingRight=4;overflow=hidden;rotatable=0;points=[[0,0.5],[1,0.5]];portConstraint=eastwest;" vertex="1" parent="cxmRrtGTWL4b0-NTS0eR-68">
                    <mxGeometry y="225" width="140" height="20" as="geometry"/>
                </mxCell>
                <mxCell id="cxmRrtGTWL4b0-NTS0eR-70" value="" style="line;strokeWidth=1;fillColor=none;align=left;verticalAlign=middle;spacingTop=-1;spacingLeft=3;spacingRight=3;rotatable=0;labelPosition=right;points=[];portConstraint=eastwest;" vertex="1" parent="cxmRrtGTWL4b0-NTS0eR-68">
                    <mxGeometry y="245" width="140" height="8" as="geometry"/>
                </mxCell>
                <mxCell id="cxmRrtGTWL4b0-NTS0eR-71" value="loadConfigs()" style="text;html=1;strokeColor=none;fillColor=none;align=center;verticalAlign=middle;spacingLeft=4;spacingRight=4;overflow=hidden;rotatable=0;points=[[0,0.5],[1,0.5]];portConstraint=eastwest;" vertex="1" parent="cxmRrtGTWL4b0-NTS0eR-68">
                    <mxGeometry y="253" width="140" height="20" as="geometry"/>
                </mxCell>
                <mxCell id="cxmRrtGTWL4b0-NTS0eR-72" value="User interface" style="swimlane;fontStyle=0;align=center;verticalAlign=top;childLayout=stackLayout;horizontal=1;startSize=25;horizontalStack=0;resizeParent=1;resizeParentMax=0;resizeLast=0;collapsible=0;marginBottom=0;html=1;" vertex="1" parent="1">
                    <mxGeometry x="500" y="70" width="140" height="33" as="geometry"/>
                </mxCell>
                <mxCell id="cxmRrtGTWL4b0-NTS0eR-74" value="" style="line;strokeWidth=1;fillColor=none;align=left;verticalAlign=middle;spacingTop=-1;spacingLeft=3;spacingRight=3;rotatable=0;labelPosition=right;points=[];portConstraint=eastwest;" vertex="1" parent="cxmRrtGTWL4b0-NTS0eR-72">
                    <mxGeometry y="25" width="140" height="8" as="geometry"/>
                </mxCell>
                <mxCell id="cxmRrtGTWL4b0-NTS0eR-141" style="edgeStyle=none;html=1;exitX=0.5;exitY=0;exitDx=0;exitDy=0;endArrow=none;endFill=0;" edge="1" parent="1" source="cxmRrtGTWL4b0-NTS0eR-78" target="cxmRrtGTWL4b0-NTS0eR-98">
                    <mxGeometry relative="1" as="geometry"/>
                </mxCell>
                <mxCell id="cxmRrtGTWL4b0-NTS0eR-78" value="Alarm" style="swimlane;fontStyle=0;align=center;verticalAlign=top;childLayout=stackLayout;horizontal=1;startSize=25;horizontalStack=0;resizeParent=1;resizeParentMax=0;resizeLast=0;collapsible=0;marginBottom=0;html=1;" vertex="1" parent="1">
                    <mxGeometry x="440" y="440" width="140" height="93" as="geometry"/>
                </mxCell>
                <mxCell id="cxmRrtGTWL4b0-NTS0eR-80" value="UpperLimit: float" style="text;html=1;strokeColor=none;fillColor=none;align=left;verticalAlign=middle;spacingLeft=4;spacingRight=4;overflow=hidden;rotatable=0;points=[[0,0.5],[1,0.5]];portConstraint=eastwest;" vertex="1" parent="cxmRrtGTWL4b0-NTS0eR-78">
                    <mxGeometry y="25" width="140" height="20" as="geometry"/>
                </mxCell>
                <mxCell id="cxmRrtGTWL4b0-NTS0eR-88" value="LowerLimit: float" style="text;html=1;strokeColor=none;fillColor=none;align=left;verticalAlign=middle;spacingLeft=4;spacingRight=4;overflow=hidden;rotatable=0;points=[[0,0.5],[1,0.5]];portConstraint=eastwest;" vertex="1" parent="cxmRrtGTWL4b0-NTS0eR-78">
                    <mxGeometry y="45" width="140" height="20" as="geometry"/>
                </mxCell>
                <mxCell id="cxmRrtGTWL4b0-NTS0eR-84" value="" style="line;strokeWidth=1;fillColor=none;align=left;verticalAlign=middle;spacingTop=-1;spacingLeft=3;spacingRight=3;rotatable=0;labelPosition=right;points=[];portConstraint=eastwest;" vertex="1" parent="cxmRrtGTWL4b0-NTS0eR-78">
                    <mxGeometry y="65" width="140" height="8" as="geometry"/>
                </mxCell>
                <mxCell id="cxmRrtGTWL4b0-NTS0eR-86" value="checkValue()" style="text;html=1;strokeColor=none;fillColor=none;align=left;verticalAlign=middle;spacingLeft=4;spacingRight=4;overflow=hidden;rotatable=0;points=[[0,0.5],[1,0.5]];portConstraint=eastwest;" vertex="1" parent="cxmRrtGTWL4b0-NTS0eR-78">
                    <mxGeometry y="73" width="140" height="20" as="geometry"/>
                </mxCell>
                <mxCell id="cxmRrtGTWL4b0-NTS0eR-142" style="edgeStyle=none;html=1;exitX=0.5;exitY=0;exitDx=0;exitDy=0;entryX=0.386;entryY=1;entryDx=0;entryDy=0;entryPerimeter=0;endArrow=none;endFill=0;" edge="1" parent="1" source="cxmRrtGTWL4b0-NTS0eR-116" target="cxmRrtGTWL4b0-NTS0eR-21">
                    <mxGeometry relative="1" as="geometry"/>
                </mxCell>
                <mxCell id="cxmRrtGTWL4b0-NTS0eR-116" value="Communicator" style="swimlane;fontStyle=0;align=center;verticalAlign=top;childLayout=stackLayout;horizontal=1;startSize=25;horizontalStack=0;resizeParent=1;resizeParentMax=0;resizeLast=0;collapsible=0;marginBottom=0;html=1;" vertex="1" parent="1">
                    <mxGeometry x="240" y="210" width="140" height="93" as="geometry"/>
                </mxCell>
                <mxCell id="cxmRrtGTWL4b0-NTS0eR-117" value="Protocol: Protocol" style="text;html=1;strokeColor=none;fillColor=none;align=center;verticalAlign=middle;spacingLeft=4;spacingRight=4;overflow=hidden;rotatable=0;points=[[0,0.5],[1,0.5]];portConstraint=eastwest;" vertex="1" parent="cxmRrtGTWL4b0-NTS0eR-116">
                    <mxGeometry y="25" width="140" height="20" as="geometry"/>
                </mxCell>
                <mxCell id="cxmRrtGTWL4b0-NTS0eR-122" value="" style="line;strokeWidth=1;fillColor=none;align=left;verticalAlign=middle;spacingTop=-1;spacingLeft=3;spacingRight=3;rotatable=0;labelPosition=right;points=[];portConstraint=eastwest;" vertex="1" parent="cxmRrtGTWL4b0-NTS0eR-116">
                    <mxGeometry y="45" width="140" height="8" as="geometry"/>
                </mxCell>
                <mxCell id="cxmRrtGTWL4b0-NTS0eR-124" value="postAlarm()" style="text;html=1;strokeColor=none;fillColor=none;align=left;verticalAlign=middle;spacingLeft=4;spacingRight=4;overflow=hidden;rotatable=0;points=[[0,0.5],[1,0.5]];portConstraint=eastwest;" vertex="1" parent="cxmRrtGTWL4b0-NTS0eR-116">
                    <mxGeometry y="53" width="140" height="20" as="geometry"/>
                </mxCell>
                <mxCell id="cxmRrtGTWL4b0-NTS0eR-133" value="fetchPumpCapacity()" style="text;html=1;strokeColor=none;fillColor=none;align=left;verticalAlign=middle;spacingLeft=4;spacingRight=4;overflow=hidden;rotatable=0;points=[[0,0.5],[1,0.5]];portConstraint=eastwest;" vertex="1" parent="cxmRrtGTWL4b0-NTS0eR-116">
                    <mxGeometry y="73" width="140" height="20" as="geometry"/>
                </mxCell>
                <mxCell id="cxmRrtGTWL4b0-NTS0eR-147" style="edgeStyle=none;html=1;exitX=0.5;exitY=0;exitDx=0;exitDy=0;entryX=0.507;entryY=1.05;entryDx=0;entryDy=0;entryPerimeter=0;endArrow=none;endFill=0;" edge="1" parent="1" source="cxmRrtGTWL4b0-NTS0eR-125" target="cxmRrtGTWL4b0-NTS0eR-71">
                    <mxGeometry relative="1" as="geometry"/>
                </mxCell>
                <mxCell id="cxmRrtGTWL4b0-NTS0eR-125" value="Protocol" style="swimlane;fontStyle=0;align=center;verticalAlign=top;childLayout=stackLayout;horizontal=1;startSize=25;horizontalStack=0;resizeParent=1;resizeParentMax=0;resizeLast=0;collapsible=0;marginBottom=0;html=1;" vertex="1" parent="1">
                    <mxGeometry x="60" y="383" width="140" height="33" as="geometry"/>
                </mxCell>
                <mxCell id="cxmRrtGTWL4b0-NTS0eR-127" value="" style="line;strokeWidth=1;fillColor=none;align=left;verticalAlign=middle;spacingTop=-1;spacingLeft=3;spacingRight=3;rotatable=0;labelPosition=right;points=[];portConstraint=eastwest;" vertex="1" parent="cxmRrtGTWL4b0-NTS0eR-125">
                    <mxGeometry y="25" width="140" height="8" as="geometry"/>
                </mxCell>
                <mxCell id="cxmRrtGTWL4b0-NTS0eR-146" style="edgeStyle=none;html=1;exitX=0.5;exitY=0;exitDx=0;exitDy=0;endArrow=none;endFill=0;" edge="1" parent="1" source="cxmRrtGTWL4b0-NTS0eR-130" target="cxmRrtGTWL4b0-NTS0eR-61">
                    <mxGeometry relative="1" as="geometry"/>
                </mxCell>
                <mxCell id="cxmRrtGTWL4b0-NTS0eR-130" value="&amp;lt;&amp;lt;enumeration&amp;gt;&amp;gt;&lt;br&gt;&lt;b&gt;Direction&lt;/b&gt;" style="swimlane;fontStyle=0;align=center;verticalAlign=top;childLayout=stackLayout;horizontal=1;startSize=40;horizontalStack=0;resizeParent=1;resizeParentMax=0;resizeLast=0;collapsible=0;marginBottom=0;html=1;" vertex="1" parent="1">
                    <mxGeometry x="640" y="436.5" width="140" height="100" as="geometry"/>
                </mxCell>
                <mxCell id="cxmRrtGTWL4b0-NTS0eR-131" value="input" style="text;html=1;strokeColor=none;fillColor=none;align=left;verticalAlign=middle;spacingLeft=4;spacingRight=4;overflow=hidden;rotatable=0;points=[[0,0.5],[1,0.5]];portConstraint=eastwest;" vertex="1" parent="cxmRrtGTWL4b0-NTS0eR-130">
                    <mxGeometry y="40" width="140" height="30" as="geometry"/>
                </mxCell>
                <mxCell id="cxmRrtGTWL4b0-NTS0eR-132" value="output" style="text;html=1;strokeColor=none;fillColor=none;align=left;verticalAlign=middle;spacingLeft=4;spacingRight=4;overflow=hidden;rotatable=0;points=[[0,0.5],[1,0.5]];portConstraint=eastwest;" vertex="1" parent="cxmRrtGTWL4b0-NTS0eR-130">
                    <mxGeometry y="70" width="140" height="30" as="geometry"/>
                </mxCell>
                <mxCell id="cxmRrtGTWL4b0-NTS0eR-136" style="edgeStyle=none;html=1;exitX=1;exitY=0.5;exitDx=0;exitDy=0;entryX=0;entryY=0.5;entryDx=0;entryDy=0;endArrow=none;endFill=0;" edge="1" parent="1" source="cxmRrtGTWL4b0-NTS0eR-110" target="cxmRrtGTWL4b0-NTS0eR-16">
                    <mxGeometry relative="1" as="geometry"/>
                </mxCell>
                <mxCell id="cxmRrtGTWL4b0-NTS0eR-137" style="edgeStyle=none;html=1;exitX=1;exitY=0.5;exitDx=0;exitDy=0;endArrow=none;endFill=0;" edge="1" parent="1" source="cxmRrtGTWL4b0-NTS0eR-16">
                    <mxGeometry relative="1" as="geometry">
                        <mxPoint x="500" y="95" as="targetPoint"/>
                    </mxGeometry>
                </mxCell>
                <mxCell id="cxmRrtGTWL4b0-NTS0eR-138" style="edgeStyle=none;html=1;exitX=1;exitY=0.5;exitDx=0;exitDy=0;entryX=0;entryY=0.5;entryDx=0;entryDy=0;endArrow=none;endFill=0;" edge="1" parent="1" source="cxmRrtGTWL4b0-NTS0eR-96" target="cxmRrtGTWL4b0-NTS0eR-58">
                    <mxGeometry relative="1" as="geometry"/>
                </mxCell>
            </root>
        </mxGraphModel>
    </diagram>
</mxfile>